<?xml version="1.0" encoding="utf-8"?>
<!-- Generator: Adobe Illustrator 26.3.1, SVG Export Plug-In . SVG Version: 6.00 Build 0)  -->
<svg version="1.1" id="Layer_1" xmlns="http://www.w3.org/2000/svg" xmlns:xlink="http://www.w3.org/1999/xlink" x="0px" y="0px"
	 viewBox="0 0 363.38 103.52" enable-background="new 0 0 363.38 103.52" xml:space="preserve">
<polygon fill="#F26921" points="17.97,90.58 29.91,88.69 18.65,14.11 6.72,16.01 "/>
<rect x="191.43" y="21.24" transform="matrix(0.9877 0.1564 -0.1564 0.9877 11.039 -30.2144)" fill="#ED1C24" width="12.09" height="67.57"/>
<rect x="35.15" y="8.87" fill="#00AEEF" width="29" height="28.28"/>
<rect x="36.75" y="51.63" transform="matrix(0.9945 -0.1045 0.1045 0.9945 -6.6544 5.721)" fill="#A862A7" width="29" height="29.44"/>
<polygon fill="#63A77C" points="76.26,65.66 100.92,96.13 77.92,97.34 "/>
<polygon fill="#F26921" points="81.54,36.54 106.2,6.07 83.21,4.86 "/>
<polygon fill="#ED1C24" points="118.2,21.48 88.65,52.35 111.14,88.69 "/>
<polyline fill="#00AEEF" points="130.47,99.34 128.13,54.75 152.97,98.16 130.47,99.34 "/>
<polygon fill="#63A77C" points="152.14,89.54 174.65,90.71 176.98,46.12 "/>
<polygon fill="#A862A7" points="130.36,19.48 150.53,65.25 175.38,21.84 "/>
<g>
	<path d="M247.15,8.57h3.2v22.37h-3.2v-9.74h-12.57v9.74h-3.2V8.57h3.2v9.67h12.57V8.57z"/>
	<path d="M262.43,8.45h2.25l10.03,22.5h-3.28l-2.98-6.63h-9.54l-2.8,6.63h-3.29L262.43,8.45z M267.14,21.47l-3.61-8.1l-3.35,8.1
		H267.14z"/>
	<path d="M303.04,8.57h3.19l-9.05,22.47h-0.7l-7.32-18.19l-7.39,18.19h-0.69l-9.02-22.47h3.23L281.47,24l6.21-15.42h3.03L296.94,24
		L303.04,8.57z"/>
	<path d="M313.24,8.45h2.25l10.03,22.5h-3.28l-2.98-6.63h-9.54l-2.8,6.63h-3.29L313.24,8.45z M317.94,21.47l-3.61-8.1l-3.35,8.1
		H317.94z"/>
	<path d="M328,8.57h3.2v22.37H328V8.57z"/>
	<path d="M341.45,8.57h3.2v22.37h-3.2V8.57z"/>
	<path d="M244.03,40.01h4l-9.71,10.62l12.09,11.76h-4.37l-11.44-11.05v11.05h-3.2V40.01h3.2v10.23L244.03,40.01z"/>
	<path d="M251.58,40.01h12.68v2.85h-9.48v6.82h9.16v2.87h-9.16v6.95h9.79v2.85h-12.99V40.01z"/>
	<path d="M268.01,40.01h3.2v22.37h-3.2V40.01z"/>
	<path d="M288.83,40.01h4l-9.71,10.62l12.09,11.76h-4.37l-11.44-11.05v11.05h-3.2V40.01h3.2v10.23L288.83,40.01z"/>
	<path d="M297.72,40.01h3.2v22.37h-3.2V40.01z"/>
	<path d="M249.17,71.44h3v22.37h-3.22V76.41l-6.88,8.65h-0.59l-6.96-8.65v17.41h-3.2V71.44h3.03l7.43,9.19L249.17,71.44z"/>
	<path d="M272.56,71.44h3.22v12.7c0,1.72-0.12,3.02-0.38,3.89c-0.25,0.88-0.56,1.6-0.93,2.19c-0.37,0.58-0.82,1.1-1.35,1.56
		c-1.77,1.53-4.09,2.29-6.95,2.29c-2.92,0-5.25-0.76-7.01-2.27c-0.53-0.47-0.99-1-1.35-1.58s-0.67-1.29-0.91-2.14
		s-0.36-2.17-0.36-3.97V71.44h3.22v12.7c0,2.1,0.24,3.57,0.72,4.39s1.21,1.48,2.19,1.98c0.98,0.5,2.14,0.75,3.48,0.75
		c1.9,0,3.45-0.5,4.64-1.49c0.63-0.53,1.08-1.16,1.36-1.89c0.28-0.73,0.42-1.97,0.42-3.73V71.44z"/>
	<path d="M285.75,84.44l-2.43-1.48c-1.53-0.93-2.61-1.85-3.26-2.75c-0.65-0.9-0.97-1.94-0.97-3.12c0-1.76,0.61-3.19,1.83-4.29
		s2.81-1.65,4.77-1.65c1.87,0,3.58,0.52,5.14,1.57v3.64c-1.61-1.55-3.35-2.33-5.21-2.33c-1.05,0-1.91,0.24-2.58,0.73
		c-0.67,0.48-1.01,1.1-1.01,1.86c0,0.67,0.25,1.3,0.74,1.88c0.5,0.58,1.29,1.2,2.39,1.84l2.45,1.45c2.73,1.63,4.09,3.71,4.09,6.22
		c0,1.79-0.6,3.25-1.8,4.37s-2.76,1.68-4.68,1.68c-2.21,0-4.22-0.68-6.04-2.04v-4.07c1.73,2.19,3.73,3.29,6.01,3.29
		c1,0,1.84-0.28,2.51-0.84c0.67-0.56,1-1.26,1-2.1C288.7,86.96,287.72,85.66,285.75,84.44z"/>
	<path d="M295.23,71.44h12.68v2.85h-9.48v6.82h9.16v2.87h-9.16v6.95h9.79v2.85h-12.99V71.44z"/>
	<path d="M327.2,71.44h3.22v12.7c0,1.72-0.12,3.02-0.38,3.89c-0.25,0.88-0.56,1.6-0.93,2.19c-0.37,0.58-0.82,1.1-1.35,1.56
		c-1.77,1.53-4.09,2.29-6.95,2.29c-2.92,0-5.25-0.76-7.01-2.27c-0.53-0.47-0.99-1-1.35-1.58s-0.67-1.29-0.91-2.14
		s-0.36-2.17-0.36-3.97V71.44h3.22v12.7c0,2.1,0.24,3.57,0.72,4.39s1.21,1.48,2.19,1.98c0.98,0.5,2.14,0.75,3.48,0.75
		c1.9,0,3.45-0.5,4.64-1.49c0.63-0.53,1.08-1.16,1.36-1.89c0.28-0.73,0.42-1.97,0.42-3.73V71.44z"/>
	<path d="M352.65,71.44h3v22.37h-3.22V76.41l-6.88,8.65h-0.59L338,76.41v17.41h-3.2V71.44h3.03l7.43,9.19L352.65,71.44z"/>
</g>
<g>
	<path d="M334.85,8.58h3.14l-0.53,5.24h-2.08L334.85,8.58z"/>
</g>
</svg>
